<svg fill="#000000" xmlns="http://www.w3.org/2000/svg"  viewBox="0 0 48 48" width="48px" height="48px"><path d="M 25.960938 1.9804688 A 2.0002 2.0002 0 0 0 24.585938 2.5859375 L 20.763672 6.4082031 A 2.0002 2.0002 0 0 0 20.771484 9.5996094 L 24.585938 13.414062 A 2.0002 2.0002 0 1 0 27.414062 10.585938 L 27.208984 10.380859 C 33.405564 11.826078 38 17.350706 38 24 C 38 28.417843 35.945133 32.30688 32.746094 34.880859 A 2.0003738 2.0003738 0 0 0 35.253906 37.998047 C 39.342867 34.708027 42 29.664157 42 24 C 42 14.972684 35.296713 7.4880476 26.615234 6.2128906 L 27.414062 5.4140625 A 2.0002 2.0002 0 0 0 25.960938 1.9804688 z M 13.978516 9.5429688 A 2.0002 2.0002 0 0 0 12.746094 10.001953 C 8.6571327 13.291973 6 18.335843 6 24 C 6 33.027316 12.703287 40.511952 21.384766 41.787109 L 20.585938 42.585938 A 2.0002 2.0002 0 1 0 23.414062 45.414062 L 27.236328 41.591797 A 2.0002 2.0002 0 0 0 27.228516 38.400391 L 23.414062 34.585938 A 2.0002 2.0002 0 0 0 21.978516 33.980469 A 2.0002 2.0002 0 0 0 20.585938 37.414062 L 20.791016 37.619141 C 14.594436 36.173922 10 30.649294 10 24 C 10 19.582157 12.054867 15.69312 15.253906 13.119141 A 2.0002 2.0002 0 0 0 13.978516 9.5429688 z"/></svg>