<?xml version="1.0" encoding="UTF-8"?>
<svg xmlns="http://www.w3.org/2000/svg" xmlns:xlink="http://www.w3.org/1999/xlink" viewBox="0 0 24 24" width="24px" height="24px">
<g id="surface1664114">
<path style=" stroke:none;fill-rule:nonzero;fill:rgb(0%,0%,0%);fill-opacity:1;" d="M 10 2 L 9 3 L 4 3 L 4 5 L 5 5 L 5 20 C 5 20.523438 5.191406 21.054688 5.570312 21.429688 C 5.945312 21.808594 6.476562 22 7 22 L 17 22 C 17.523438 22 18.054688 21.808594 18.433594 21.429688 C 18.808594 21.054688 19 20.523438 19 20 L 19 5 L 20 5 L 20 3 L 15 3 L 14 2 Z M 7 5 L 17 5 L 17 20 L 7 20 Z M 9 7 L 9 18 L 11 18 L 11 7 Z M 13 7 L 13 18 L 15 18 L 15 7 Z M 13 7 "/>
</g>
</svg>
